<svg xmlns="http://www.w3.org/2000/svg" version="1.1" xmlns:xlink="http://www.w3.org/1999/xlink" xmlns:svgjs="http://svgjs.com/svgjs" width="1440" height="560" preserveAspectRatio="none" viewBox="0 0 1440 560">
<style>
    .animation {
        animation: blinking 2s infinite;
    }
    @keyframes blinking {
        0%, 100% {
            stroke: #706f7d;
        }
        50% {
            stroke: #82828c;
        }
    }
</style>

<g mask="url(&quot;#SvgjsMask1005&quot;)" fill="none"><rect width="1440" height="560" x="0" y="0" fill="#0e2a47"></rect><path d="M159.5 404.62L224.45 442.12L224.45 517.12L159.5 554.62L94.54 517.12L94.54 442.12zM419.31 -45.38L484.27 -7.88L484.27 67.12L419.31 104.62L354.36 67.12L354.36 -7.88zM419.31 179.62L484.27 217.12L484.27 292.12L419.31 329.62L354.36 292.12L354.36 217.12zM549.22 -45.38L614.17 -7.88L614.17 67.12L549.22 104.62L484.27 67.12L484.27 -7.88zM614.17 67.12L679.13 104.62L679.13 179.62L614.17 217.12L549.22 179.62L549.22 104.62zM614.17 292.12L679.13 329.62L679.13 404.62L614.17 442.12L549.22 404.62L549.22 329.62zM744.08 292.12L809.04 329.62L809.04 404.62L744.08 442.12L679.13 404.62L679.13 329.62zM679.13 404.62L744.08 442.12L744.08 517.12L679.13 554.62L614.17 517.12L614.17 442.12zM809.03 404.62L873.99 442.12L873.99 517.12L809.03 554.62L744.08 517.12L744.08 442.12zM873.99 517.12L938.94 554.62L938.94 629.62L873.99 667.12L809.03 629.62L809.03 554.62zM1003.9 67.12L1068.85 104.62L1068.85 179.62L1003.9 217.12L938.94 179.62L938.94 104.62zM938.94 179.62L1003.9 217.12L1003.9 292.12L938.94 329.62L873.99 292.12L873.99 217.12zM938.94 404.62L1003.9 442.12L1003.9 517.12L938.94 554.62L873.99 517.12L873.99 442.12zM1068.85 -45.38L1133.8 -7.88L1133.8 67.12L1068.85 104.62L1003.9 67.12L1003.9 -7.88zM1068.85 179.62L1133.8 217.12L1133.8 292.12L1068.85 329.62L1003.9 292.12L1003.9 217.12zM1068.85 404.62L1133.8 442.12L1133.8 517.12L1068.85 554.62L1003.9 517.12L1003.9 442.12zM1133.8 517.12L1198.76 554.62L1198.76 629.62L1133.8 667.12L1068.85 629.62L1068.85 554.62zM1198.76 -45.38L1263.71 -7.88L1263.71 67.12L1198.76 104.62L1133.8 67.12L1133.8 -7.88zM1263.71 292.12L1328.66 329.62L1328.66 404.62L1263.71 442.12L1198.76 404.62L1198.76 329.62zM1263.71 517.12L1328.66 554.62L1328.66 629.62L1263.71 667.12L1198.76 629.62L1198.76 554.62z" stroke="#03305d" stroke-width="2"></path><path class="animation" d="M152 404.62 a7.5 7.5 0 1 0 15 0 a7.5 7.5 0 1 0 -15 0zM216.95 442.12 a7.5 7.5 0 1 0 15 0 a7.5 7.5 0 1 0 -15 0zM216.95 517.12 a7.5 7.5 0 1 0 15 0 a7.5 7.5 0 1 0 -15 0zM152 554.62 a7.5 7.5 0 1 0 15 0 a7.5 7.5 0 1 0 -15 0zM87.04 517.12 a7.5 7.5 0 1 0 15 0 a7.5 7.5 0 1 0 -15 0zM87.04 442.12 a7.5 7.5 0 1 0 15 0 a7.5 7.5 0 1 0 -15 0zM411.81 -45.38 a7.5 7.5 0 1 0 15 0 a7.5 7.5 0 1 0 -15 0zM476.77 -7.88 a7.5 7.5 0 1 0 15 0 a7.5 7.5 0 1 0 -15 0zM476.77 67.12 a7.5 7.5 0 1 0 15 0 a7.5 7.5 0 1 0 -15 0zM411.81 104.62 a7.5 7.5 0 1 0 15 0 a7.5 7.5 0 1 0 -15 0zM346.86 67.12 a7.5 7.5 0 1 0 15 0 a7.5 7.5 0 1 0 -15 0zM346.86 -7.88 a7.5 7.5 0 1 0 15 0 a7.5 7.5 0 1 0 -15 0zM411.81 179.62 a7.5 7.5 0 1 0 15 0 a7.5 7.5 0 1 0 -15 0zM476.77 217.12 a7.5 7.5 0 1 0 15 0 a7.5 7.5 0 1 0 -15 0zM476.77 292.12 a7.5 7.5 0 1 0 15 0 a7.5 7.5 0 1 0 -15 0zM411.81 329.62 a7.5 7.5 0 1 0 15 0 a7.5 7.5 0 1 0 -15 0zM346.86 292.12 a7.5 7.5 0 1 0 15 0 a7.5 7.5 0 1 0 -15 0zM346.86 217.12 a7.5 7.5 0 1 0 15 0 a7.5 7.5 0 1 0 -15 0zM541.72 -45.38 a7.5 7.5 0 1 0 15 0 a7.5 7.5 0 1 0 -15 0zM606.67 -7.88 a7.5 7.5 0 1 0 15 0 a7.5 7.5 0 1 0 -15 0zM606.67 67.12 a7.5 7.5 0 1 0 15 0 a7.5 7.5 0 1 0 -15 0zM541.72 104.62 a7.5 7.5 0 1 0 15 0 a7.5 7.5 0 1 0 -15 0zM671.63 104.62 a7.5 7.5 0 1 0 15 0 a7.5 7.5 0 1 0 -15 0zM671.63 179.62 a7.5 7.5 0 1 0 15 0 a7.5 7.5 0 1 0 -15 0zM606.67 217.12 a7.5 7.5 0 1 0 15 0 a7.5 7.5 0 1 0 -15 0zM541.72 179.62 a7.5 7.5 0 1 0 15 0 a7.5 7.5 0 1 0 -15 0zM606.67 292.12 a7.5 7.5 0 1 0 15 0 a7.5 7.5 0 1 0 -15 0zM671.63 329.62 a7.5 7.5 0 1 0 15 0 a7.5 7.5 0 1 0 -15 0zM671.63 404.62 a7.5 7.5 0 1 0 15 0 a7.5 7.5 0 1 0 -15 0zM606.67 442.12 a7.5 7.5 0 1 0 15 0 a7.5 7.5 0 1 0 -15 0zM541.72 404.62 a7.5 7.5 0 1 0 15 0 a7.5 7.5 0 1 0 -15 0zM541.72 329.62 a7.5 7.5 0 1 0 15 0 a7.5 7.5 0 1 0 -15 0zM736.58 292.12 a7.5 7.5 0 1 0 15 0 a7.5 7.5 0 1 0 -15 0zM801.54 329.62 a7.5 7.5 0 1 0 15 0 a7.5 7.5 0 1 0 -15 0zM801.54 404.62 a7.5 7.5 0 1 0 15 0 a7.5 7.5 0 1 0 -15 0zM736.58 442.12 a7.5 7.5 0 1 0 15 0 a7.5 7.5 0 1 0 -15 0zM736.58 517.12 a7.5 7.5 0 1 0 15 0 a7.5 7.5 0 1 0 -15 0zM671.63 554.62 a7.5 7.5 0 1 0 15 0 a7.5 7.5 0 1 0 -15 0zM606.67 517.12 a7.5 7.5 0 1 0 15 0 a7.5 7.5 0 1 0 -15 0zM801.53 404.62 a7.5 7.5 0 1 0 15 0 a7.5 7.5 0 1 0 -15 0zM866.49 442.12 a7.5 7.5 0 1 0 15 0 a7.5 7.5 0 1 0 -15 0zM866.49 517.12 a7.5 7.5 0 1 0 15 0 a7.5 7.5 0 1 0 -15 0zM801.53 554.62 a7.5 7.5 0 1 0 15 0 a7.5 7.5 0 1 0 -15 0zM931.44 554.62 a7.5 7.5 0 1 0 15 0 a7.5 7.5 0 1 0 -15 0zM931.44 629.62 a7.5 7.5 0 1 0 15 0 a7.5 7.5 0 1 0 -15 0zM866.49 667.12 a7.5 7.5 0 1 0 15 0 a7.5 7.5 0 1 0 -15 0zM801.53 629.62 a7.5 7.5 0 1 0 15 0 a7.5 7.5 0 1 0 -15 0zM996.4 67.12 a7.5 7.5 0 1 0 15 0 a7.5 7.5 0 1 0 -15 0zM1061.35 104.62 a7.5 7.5 0 1 0 15 0 a7.5 7.5 0 1 0 -15 0zM1061.35 179.62 a7.5 7.5 0 1 0 15 0 a7.5 7.5 0 1 0 -15 0zM996.4 217.12 a7.5 7.5 0 1 0 15 0 a7.5 7.5 0 1 0 -15 0zM931.44 179.62 a7.5 7.5 0 1 0 15 0 a7.5 7.5 0 1 0 -15 0zM931.44 104.62 a7.5 7.5 0 1 0 15 0 a7.5 7.5 0 1 0 -15 0zM996.4 292.12 a7.5 7.5 0 1 0 15 0 a7.5 7.5 0 1 0 -15 0zM931.44 329.62 a7.5 7.5 0 1 0 15 0 a7.5 7.5 0 1 0 -15 0zM866.49 292.12 a7.5 7.5 0 1 0 15 0 a7.5 7.5 0 1 0 -15 0zM866.49 217.12 a7.5 7.5 0 1 0 15 0 a7.5 7.5 0 1 0 -15 0zM931.44 404.62 a7.5 7.5 0 1 0 15 0 a7.5 7.5 0 1 0 -15 0zM996.4 442.12 a7.5 7.5 0 1 0 15 0 a7.5 7.5 0 1 0 -15 0zM996.4 517.12 a7.5 7.5 0 1 0 15 0 a7.5 7.5 0 1 0 -15 0zM1061.35 -45.38 a7.5 7.5 0 1 0 15 0 a7.5 7.5 0 1 0 -15 0zM1126.3 -7.88 a7.5 7.5 0 1 0 15 0 a7.5 7.5 0 1 0 -15 0zM1126.3 67.12 a7.5 7.5 0 1 0 15 0 a7.5 7.5 0 1 0 -15 0zM996.4 -7.88 a7.5 7.5 0 1 0 15 0 a7.5 7.5 0 1 0 -15 0zM1126.3 217.12 a7.5 7.5 0 1 0 15 0 a7.5 7.5 0 1 0 -15 0zM1126.3 292.12 a7.5 7.5 0 1 0 15 0 a7.5 7.5 0 1 0 -15 0zM1061.35 329.62 a7.5 7.5 0 1 0 15 0 a7.5 7.5 0 1 0 -15 0zM1061.35 404.62 a7.5 7.5 0 1 0 15 0 a7.5 7.5 0 1 0 -15 0zM1126.3 442.12 a7.5 7.5 0 1 0 15 0 a7.5 7.5 0 1 0 -15 0zM1126.3 517.12 a7.5 7.5 0 1 0 15 0 a7.5 7.5 0 1 0 -15 0zM1061.35 554.62 a7.5 7.5 0 1 0 15 0 a7.5 7.5 0 1 0 -15 0zM1191.26 554.62 a7.5 7.5 0 1 0 15 0 a7.5 7.5 0 1 0 -15 0zM1191.26 629.62 a7.5 7.5 0 1 0 15 0 a7.5 7.5 0 1 0 -15 0zM1126.3 667.12 a7.5 7.5 0 1 0 15 0 a7.5 7.5 0 1 0 -15 0zM1061.35 629.62 a7.5 7.5 0 1 0 15 0 a7.5 7.5 0 1 0 -15 0zM1191.26 -45.38 a7.5 7.5 0 1 0 15 0 a7.5 7.5 0 1 0 -15 0zM1256.21 -7.88 a7.5 7.5 0 1 0 15 0 a7.5 7.5 0 1 0 -15 0zM1256.21 67.12 a7.5 7.5 0 1 0 15 0 a7.5 7.5 0 1 0 -15 0zM1191.26 104.62 a7.5 7.5 0 1 0 15 0 a7.5 7.5 0 1 0 -15 0zM1256.21 292.12 a7.5 7.5 0 1 0 15 0 a7.5 7.5 0 1 0 -15 0zM1321.16 329.62 a7.5 7.5 0 1 0 15 0 a7.5 7.5 0 1 0 -15 0zM1321.16 404.62 a7.5 7.5 0 1 0 15 0 a7.5 7.5 0 1 0 -15 0zM1256.21 442.12 a7.5 7.5 0 1 0 15 0 a7.5 7.5 0 1 0 -15 0zM1191.26 404.62 a7.5 7.5 0 1 0 15 0 a7.5 7.5 0 1 0 -15 0zM1191.26 329.62 a7.5 7.5 0 1 0 15 0 a7.5 7.5 0 1 0 -15 0zM1256.21 517.12 a7.5 7.5 0 1 0 15 0 a7.5 7.5 0 1 0 -15 0zM1321.16 554.62 a7.5 7.5 0 1 0 15 0 a7.5 7.5 0 1 0 -15 0zM1321.16 629.62 a7.5 7.5 0 1 0 15 0 a7.5 7.5 0 1 0 -15 0zM1256.21 667.12 a7.5 7.5 0 1 0 15 0 a7.5 7.5 0 1 0 -15 0z" fill="#03305d"></path><path d="M91.61 61.2L134.92 86.2L134.92 136.2L91.61 161.2L48.31 136.2L48.31 86.2zM91.61 511.2L134.92 536.2L134.92 586.2L91.61 611.2L48.31 586.2L48.31 536.2zM178.22 61.2L221.52 86.2L221.52 136.2L178.22 161.2L134.92 136.2L134.92 86.2zM178.22 211.2L221.52 236.2L221.52 286.2L178.22 311.2L134.92 286.2L134.92 236.2zM178.22 511.2L221.52 536.2L221.52 586.2L178.22 611.2L134.92 586.2L134.92 536.2zM308.13 -13.8L351.43 11.2L351.43 61.2L308.13 86.2L264.82 61.2L264.82 11.2zM351.43 211.2L394.73 236.2L394.73 286.2L351.43 311.2L308.13 286.2L308.13 236.2zM351.43 511.2L394.73 536.2L394.73 586.2L351.43 611.2L308.13 586.2L308.13 536.2zM481.34 136.2L524.64 161.2L524.64 211.2L481.34 236.2L438.03 211.2L438.03 161.2zM524.64 361.2L567.94 386.2L567.94 436.2L524.64 461.2L481.34 436.2L481.34 386.2zM567.94 436.2L611.24 461.2L611.24 511.2L567.94 536.2L524.64 511.2L524.64 461.2zM611.24 511.2L654.55 536.2L654.55 586.2L611.24 611.2L567.94 586.2L567.94 536.2zM697.85 511.2L741.15 536.2L741.15 586.2L697.85 611.2L654.55 586.2L654.55 536.2zM741.15 -13.8L784.45 11.2L784.45 61.2L741.15 86.2L697.85 61.2L697.85 11.2zM871.06 361.2L914.36 386.2L914.36 436.2L871.06 461.2L827.76 436.2L827.76 386.2zM914.36 -13.8L957.66 11.2L957.66 61.2L914.36 86.2L871.06 61.2L871.06 11.2zM957.66 361.2L1000.97 386.2L1000.97 436.2L957.66 461.2L914.36 436.2L914.36 386.2zM1000.97 -13.8L1044.27 11.2L1044.27 61.2L1000.97 86.2L957.66 61.2L957.66 11.2zM1044.27 511.2L1087.57 536.2L1087.57 586.2L1044.27 611.2L1000.97 586.2L1000.97 536.2zM1087.57 136.2L1130.87 161.2L1130.87 211.2L1087.57 236.2L1044.27 211.2L1044.27 161.2zM1087.57 436.2L1130.87 461.2L1130.87 511.2L1087.57 536.2L1044.27 511.2L1044.27 461.2zM1174.17 286.2L1217.48 311.2L1217.48 361.2L1174.17 386.2L1130.87 361.2L1130.87 311.2zM1260.78 -13.8L1304.08 11.2L1304.08 61.2L1260.78 86.2L1217.48 61.2L1217.48 11.2zM1304.08 361.2L1347.38 386.2L1347.38 436.2L1304.08 461.2L1260.78 436.2L1260.78 386.2zM1347.38 -13.8L1390.69 11.2L1390.69 61.2L1347.38 86.2L1304.08 61.2L1304.08 11.2zM1347.38 286.2L1390.69 311.2L1390.69 361.2L1347.38 386.2L1304.08 361.2L1304.08 311.2z" stroke="rgba(6, 80, 156, 0.93)" stroke-width="2"></path></g><defs><mask id="SvgjsMask1005"><rect width="1440" height="560" fill="#ffffff"></rect></mask></defs></svg>